<?xml version="1.0" encoding="utf-8"?>
<!-- Generator: Adobe Illustrator 19.2.0, SVG Export Plug-In . SVG Version: 6.00 Build 0)  -->
<svg version="1.1" id="Слой_1" xmlns="http://www.w3.org/2000/svg" xmlns:xlink="http://www.w3.org/1999/xlink" x="0px" y="0px"
	 viewBox="0 0 200 80" style="enable-background:new 0 0 200 80;" xml:space="preserve">
<style type="text/css">
	.st0{fill:#FFFFFF;}
	.st1{fill:#FFFFFF;stroke:#FFFFFF;stroke-miterlimit:10;}
</style>
<path class="st0" d="M37.7,41.9c2.8-2.2,5.5-4.2,8.1-6.4c2.6-2.1,5.1-4.4,7.8-6.8c3.3,2.3,7.1,4.1,10.8,6.7c-2.6,2.4-5.5,5.3-8,7.6
	c-1.3,1.2-2.7,2.4-4.1,3.4c-0.5,0.4-1.6,1.1-2.2,0.9C45.9,45.8,41.9,43.7,37.7,41.9z"/>
<path class="st0" d="M20.8,52.4c4.6-2.8,8.8-5.4,13-8c0.3-0.2,0.9-0.3,1.3-0.2c4.2,1.8,8.4,3.6,13.1,5.7c-4.6,2.8-8.8,5.5-13.1,8.1
	c-0.2,0.2-0.7,0.2-1,0C29.8,56.2,25.4,54.3,20.8,52.4z"/>
<path class="st0" d="M56.2,26.4c3.6-4,7.2-8,10.9-12.2c2.9,2.8,5.2,4.9,7.5,7.4c0.5,0.6,0.1,1.2-0.1,1.5c-2.3,3-4.8,6-7.2,9
	c-0.5,0.7-1,1.1-1.9,0.4C62.6,30.5,59.5,28.7,56.2,26.4z"/>
<path class="st0" d="M54,48.5c4.1-3.8,8.5-8.2,12.6-12.1c2.1,1.4,4.6,2.7,7,4.4c-1,1.1-2.7,3.1-3.6,4c-2.1,2.1-4.3,4.2-6.5,6.2
	c-0.5,0.4-1.5,0.6-2.1,0.4C58.9,50.6,56.6,49.6,54,48.5z"/>
<path class="st0" d="M60,54.2c-4,2.8-7.6,5.4-11.3,7.9c-0.3,0.2-0.8,0.2-1.1,0.1c-3.2-0.9-6.4-1.9-9.9-3c0.5-0.4,0.8-0.7,1.1-0.9
	c3.5-2.3,7-4.6,10.6-6.8c0.5-0.3,1.4-0.7,1.9-0.5C54.1,52,56.8,53.1,60,54.2z"/>
<g>
	<path class="st0" d="M87,18.6h5.3v9.1h-1.6v-7.9h-2v7.9H87V18.6z"/>
	<path class="st0" d="M94.1,27.1c-0.4-0.5-0.6-1.2-0.6-2.2v-3.4c0-1,0.2-1.7,0.6-2.2s1.1-0.7,2-0.7c0.9,0,1.6,0.2,2,0.7
		s0.6,1.2,0.6,2.2v3.4c0,1-0.2,1.7-0.6,2.2c-0.4,0.5-1.1,0.8-2,0.8C95.1,27.9,94.5,27.6,94.1,27.1z M96.8,26.3
		c0.1-0.2,0.2-0.6,0.2-1v-4.2c0-0.4-0.1-0.8-0.2-1c-0.1-0.2-0.4-0.3-0.7-0.3c-0.4,0-0.6,0.1-0.8,0.3c-0.1,0.2-0.2,0.6-0.2,1v4.2
		c0,0.4,0.1,0.8,0.2,1c0.1,0.2,0.4,0.3,0.8,0.3C96.5,26.6,96.7,26.5,96.8,26.3z"/>
	<path class="st0" d="M100.9,19.8h-1.5v-1.2h4.5v1.2h-1.4v7.9h-1.7V19.8z"/>
	<path class="st0" d="M105.2,27.1c-0.4-0.5-0.6-1.2-0.6-2.2v-3.4c0-1,0.2-1.7,0.6-2.2s1.1-0.7,2-0.7c0.9,0,1.6,0.2,2,0.7
		c0.4,0.5,0.6,1.2,0.6,2.2v3.4c0,1-0.2,1.7-0.6,2.2c-0.4,0.5-1.1,0.8-2,0.8C106.3,27.9,105.6,27.6,105.2,27.1z M108,26.3
		c0.1-0.2,0.2-0.6,0.2-1v-4.2c0-0.4-0.1-0.8-0.2-1c-0.1-0.2-0.4-0.3-0.7-0.3c-0.4,0-0.6,0.1-0.8,0.3c-0.1,0.2-0.2,0.6-0.2,1v4.2
		c0,0.4,0.1,0.8,0.2,1c0.1,0.2,0.4,0.3,0.8,0.3C107.6,26.6,107.9,26.5,108,26.3z"/>
	<path class="st0" d="M110.5,26.5c0.4,0,0.7-0.1,0.8-0.2c0.2-0.1,0.3-0.4,0.4-0.9c0.1-0.5,0.2-1.3,0.3-2.4l0.3-4.5h4.4v9.1H115v-7.9
		h-1.3l-0.2,3.4c-0.1,1.2-0.2,2.1-0.3,2.7c-0.1,0.6-0.4,1-0.7,1.3c-0.3,0.3-0.9,0.4-1.6,0.4c-0.2,0-0.3,0-0.4,0V26.5z"/>
	<path class="st0" d="M118.6,27.1c-0.4-0.5-0.6-1.2-0.6-2.2v-3.4c0-1,0.2-1.7,0.6-2.2s1.1-0.7,2-0.7c0.9,0,1.6,0.2,2,0.7
		s0.6,1.2,0.6,2.2v3.4c0,1-0.2,1.7-0.6,2.2c-0.4,0.5-1.1,0.8-2,0.8C119.7,27.9,119,27.6,118.6,27.1z M121.3,26.3
		c0.1-0.2,0.2-0.6,0.2-1v-4.2c0-0.4-0.1-0.8-0.2-1c-0.1-0.2-0.4-0.3-0.7-0.3c-0.4,0-0.6,0.1-0.8,0.3c-0.1,0.2-0.2,0.6-0.2,1v4.2
		c0,0.4,0.1,0.8,0.2,1c0.1,0.2,0.4,0.3,0.8,0.3C121,26.6,121.2,26.5,121.3,26.3z"/>
	<path class="st0" d="M127.9,23.8c-0.5,0.1-0.9,0.1-1.2,0.1c-0.7,0-1.3-0.2-1.8-0.6c-0.4-0.4-0.7-0.9-0.7-1.6v-3.1h1.7v3.1
		c0,0.4,0.1,0.7,0.2,0.8c0.2,0.2,0.5,0.3,0.9,0.3c0.3,0,0.5,0,0.8-0.1v-4.1h1.7v9.1h-1.7V23.8z"/>
	<path class="st0" d="M131,18.6h1.7v3.8h1.9v-3.8h1.7v9.1h-1.7v-4.1h-1.9v4.1H131V18.6z"/>
	<path class="st0" d="M137.6,18.6h1.7v3.8h0.4c1,0,1.7,0.2,2.1,0.6s0.7,1.1,0.7,2c0,1-0.2,1.7-0.7,2.1c-0.5,0.4-1.2,0.6-2.2,0.6h-2
		V18.6z M139.6,26.6c0.5,0,0.8-0.1,1-0.3c0.2-0.2,0.3-0.6,0.3-1.2c0-0.5-0.1-0.9-0.3-1.1c-0.2-0.2-0.5-0.4-1-0.4h-0.3v3H139.6z
		 M143.3,18.6h1.7v9.1h-1.7V18.6z"/>
	<path class="st0" d="M146.4,18.6h1.4v5.8l2.5-5.8h1.1v9.1H150v-5.9l-2.5,5.9h-1.1V18.6z M147.8,17.5c-0.3-0.3-0.4-0.7-0.4-1.2h0.9
		c0,0.3,0.1,0.5,0.2,0.6c0.1,0.1,0.3,0.2,0.6,0.2c0.3,0,0.5-0.1,0.6-0.2c0.1-0.1,0.2-0.3,0.2-0.6h0.9c0,0.5-0.1,0.9-0.4,1.2
		c-0.3,0.3-0.7,0.4-1.2,0.4C148.5,17.9,148.1,17.7,147.8,17.5z"/>
	<path class="st0" d="M87.2,33.6h3.6c2.1,0,3.1,1.2,3.1,3.5c0,2.2-1.1,3.3-3.3,3.3h-1.2v5.4h-2.2V33.6z M90.3,38.8
		c0.6,0,1-0.1,1.2-0.4c0.2-0.3,0.3-0.7,0.3-1.4c0-0.5,0-0.8-0.1-1.1c-0.1-0.3-0.2-0.4-0.4-0.6c-0.2-0.1-0.5-0.2-1-0.2h-0.9v3.6H90.3
		z"/>
	<path class="st0" d="M95.1,33.6H98c1.3,0,2.2,0.2,2.9,0.7c0.6,0.5,0.9,1.3,0.9,2.5c0,0.8-0.1,1.4-0.3,1.9c-0.2,0.5-0.6,0.8-1.2,1.1
		l1.7,6h-2.2l-1.5-5.6h-1.1v5.6h-2.2V33.6z M98,38.8c0.6,0,1.1-0.1,1.3-0.4c0.3-0.3,0.4-0.8,0.4-1.4c0-0.6-0.1-1.1-0.4-1.4
		c-0.2-0.3-0.7-0.4-1.3-0.4h-0.8v3.7H98z"/>
	<path class="st0" d="M104.1,44.9c-0.5-0.7-0.8-1.7-0.8-3v-4.6c0-1.3,0.3-2.3,0.8-2.9c0.5-0.7,1.4-1,2.7-1c1.3,0,2.1,0.3,2.7,1
		c0.5,0.7,0.8,1.6,0.8,2.9V42c0,1.3-0.3,2.3-0.8,3c-0.5,0.7-1.4,1-2.7,1C105.5,45.9,104.6,45.6,104.1,44.9z M107.8,43.8
		c0.2-0.3,0.3-0.8,0.3-1.4v-5.6c0-0.6-0.1-1-0.2-1.3c-0.2-0.3-0.5-0.5-1-0.5c-0.5,0-0.8,0.2-1,0.5c-0.2,0.3-0.3,0.7-0.3,1.3v5.6
		c0,0.6,0.1,1,0.3,1.4c0.2,0.3,0.5,0.5,1,0.5C107.3,44.3,107.6,44.1,107.8,43.8z"/>
	<path class="st0" d="M115.6,33.6h1.8v7.7l3.3-7.7h1.5v12.2h-1.8V38l-3.3,7.8h-1.5V33.6z"/>
	<path class="st0" d="M124.2,33.6h2.2v5.1h2.5v-5.1h2.2v12.2h-2.2v-5.5h-2.5v5.5h-2.2V33.6z"/>
	<path class="st0" d="M134.1,35.2h-1.9v-1.6h6.1v1.6h-1.9v10.5h-2.2V35.2z"/>
	<path class="st0" d="M139.4,33.6h5.1v1.6h-2.9v3.5h2.3v1.5h-2.3v4h2.9v1.5h-5.1V33.6z"/>
	<path class="st0" d="M145.8,33.6h3.6c2.1,0,3.1,1.2,3.1,3.5c0,2.2-1.1,3.3-3.3,3.3H148v5.4h-2.2V33.6z M148.9,38.8
		c0.6,0,1-0.1,1.2-0.4c0.2-0.3,0.3-0.7,0.3-1.4c0-0.5,0-0.8-0.1-1.1c-0.1-0.3-0.2-0.4-0.4-0.6c-0.2-0.1-0.5-0.2-1-0.2H148v3.6H148.9
		z"/>
	<path class="st0" d="M153.8,33.6h2.2v5.1h0.5c1.3,0,2.2,0.3,2.8,0.8c0.6,0.5,0.9,1.4,0.9,2.7c0,1.3-0.3,2.2-1,2.7
		c-0.6,0.5-1.6,0.8-2.9,0.8h-2.7V33.6z M156.4,44.3c0.6,0,1.1-0.1,1.4-0.4c0.3-0.3,0.4-0.8,0.4-1.6c0-0.7-0.1-1.2-0.4-1.5
		c-0.3-0.3-0.7-0.5-1.4-0.5H156v4H156.4z"/>
	<path class="st0" d="M161.6,33.6h5.1v1.6h-2.9v3.5h2.3v1.5h-2.3v4h2.9v1.5h-5.1V33.6z"/>
	<path class="st0" d="M168.1,33.6h3.6c2.1,0,3.1,1.2,3.1,3.5c0,2.2-1.1,3.3-3.3,3.3h-1.2v5.4h-2.2V33.6z M171.1,38.8
		c0.6,0,1-0.1,1.2-0.4c0.2-0.3,0.3-0.7,0.3-1.4c0-0.5,0-0.8-0.1-1.1c-0.1-0.3-0.2-0.4-0.4-0.6c-0.2-0.1-0.5-0.2-1-0.2h-0.9v3.6
		H171.1z"/>
</g>
<line class="st1" x1="87.2" y1="52.3" x2="173.8" y2="52.3"/>
<g>
	<path class="st0" d="M87.8,56H89v3.7h2.2V56h1.2v8.6h-1.2v-4H89v4h-1.2V56z"/>
	<path class="st0" d="M95.1,56h1.2l1.8,8.6H97l-0.4-2.2h-1.8l-0.4,2.2h-1.1L95.1,56z M96.4,61.6l-0.7-3.9L95,61.6H96.4z"/>
	<path class="st0" d="M99.7,56.9h-1.5V56h4.1v0.9h-1.4v7.7h-1.2V56.9z"/>
	<path class="st0" d="M104.4,60.8c-0.4-0.2-0.7-0.5-0.9-0.9c-0.2-0.4-0.3-0.9-0.3-1.5c0-1.6,0.9-2.4,2.7-2.4h1.7v8.6h-1.2v-3.6h-0.7
		l-0.3,0l-1.5,3.6h-1.3L104.4,60.8z M106.4,60.2v-3.3h-0.5c-0.6,0-1,0.1-1.2,0.4c-0.3,0.2-0.4,0.6-0.4,1.2c0,0.6,0.1,1.1,0.4,1.4
		c0.3,0.3,0.7,0.4,1.3,0.4H106.4z"/>
	<path class="st0" d="M110.3,60.3l-1.8-4.2h1.2l1.6,4.2h0.1V56h1v4.2h0.1l1.6-4.2h1.2l-1.8,4.2l2,4.4h-1.2l-1.8-4.3h-0.1v4.3h-1
		v-4.3h-0.1l-1.8,4.3h-1.2L110.3,60.3z"/>
	<path class="st0" d="M116.1,56h1.2v3.7h2.2V56h1.2v8.6h-1.2v-4h-2.2v4h-1.2V56z"/>
	<path class="st0" d="M122.1,56h1.2v3.6h0.3c0.7,0,1.2,0.1,1.6,0.2c0.4,0.1,0.7,0.4,0.9,0.8c0.2,0.4,0.3,0.9,0.3,1.5
		c0,0.9-0.2,1.5-0.7,1.9c-0.4,0.4-1.1,0.6-2.1,0.6h-1.6V56z M123.7,63.8c0.4,0,0.7,0,0.9-0.1c0.2-0.1,0.4-0.2,0.5-0.5
		c0.1-0.2,0.2-0.6,0.2-1.1c0-0.4,0-0.7-0.1-0.9c-0.1-0.2-0.3-0.4-0.5-0.5c-0.2-0.1-0.5-0.2-1-0.2h-0.4v3.3H123.7z M127.3,56h1.2v8.6
		h-1.2V56z"/>
	<path class="st0" d="M129.9,56h3.3v0.9h-2.1v2.9h1.7v0.9h-1.7v3.2h2.2v0.9h-3.4V56z"/>
	<path class="st0" d="M136.7,56h4.8v8.6h-1.2v-7.8h-2.3v7.8h-1.2V56z"/>
	<path class="st0" d="M143.2,64.1c-0.4-0.5-0.5-1.2-0.5-2.1v-3.3c0-0.9,0.2-1.6,0.6-2s1-0.7,1.8-0.7c0.8,0,1.4,0.2,1.8,0.7
		c0.4,0.5,0.5,1.1,0.5,2V62c0,0.9-0.2,1.6-0.6,2.1c-0.4,0.5-1,0.7-1.8,0.7C144.1,64.8,143.5,64.5,143.2,64.1z M145.9,63.4
		c0.2-0.3,0.2-0.7,0.2-1.2v-3.8c0-0.5-0.1-0.9-0.2-1.2c-0.2-0.3-0.5-0.4-0.9-0.4c-0.5,0-0.8,0.1-0.9,0.4c-0.2,0.3-0.2,0.6-0.2,1.2
		v3.8c0,0.5,0.1,0.9,0.2,1.2c0.2,0.3,0.5,0.4,0.9,0.4C145.4,63.8,145.7,63.7,145.9,63.4z"/>
	<path class="st0" d="M149.5,56.9H148V56h4.1v0.9h-1.4v7.7h-1.2V56.9z"/>
	<path class="st0" d="M153.3,64.1c-0.4-0.5-0.5-1.2-0.5-2.1v-3.3c0-0.9,0.2-1.6,0.6-2s1-0.7,1.8-0.7c0.8,0,1.4,0.2,1.8,0.7
		c0.4,0.5,0.5,1.1,0.5,2V62c0,0.9-0.2,1.6-0.6,2.1c-0.4,0.5-1,0.7-1.8,0.7C154.3,64.8,153.7,64.5,153.3,64.1z M156,63.4
		c0.2-0.3,0.2-0.7,0.2-1.2v-3.8c0-0.5-0.1-0.9-0.2-1.2c-0.2-0.3-0.5-0.4-0.9-0.4c-0.5,0-0.8,0.1-0.9,0.4c-0.2,0.3-0.2,0.6-0.2,1.2
		v3.8c0,0.5,0.1,0.9,0.2,1.2c0.2,0.3,0.5,0.4,0.9,0.4C155.6,63.8,155.9,63.7,156,63.4z"/>
	<path class="st0" d="M158,63.8c0.3,0,0.5,0,0.7-0.2c0.2-0.1,0.3-0.4,0.4-0.9c0.1-0.4,0.2-1.2,0.3-2.1l0.3-4.6h3.8v8.6h-1.2v-7.7
		h-1.6l-0.2,3.7c-0.1,1-0.2,1.7-0.3,2.3c-0.1,0.6-0.4,1-0.7,1.3c-0.3,0.3-0.7,0.4-1.3,0.4c-0.1,0-0.2,0-0.3,0V63.8z"/>
	<path class="st0" d="M164.9,56h1.2v3.8h0.4l1.5-3.8h1.2l-1.7,4.1l1.9,4.5h-1.2l-1.7-4.2h-0.5v4.2h-1.2V56z"/>
	<path class="st0" d="M170.3,56h1.1v6l2.5-6h0.9v8.6h-1.1v-6.1l-2.5,6.1h-0.9V56z"/>
</g>
</svg>
